<?xml version="1.0" encoding="utf-8"?>
<!-- Generator: Adobe Illustrator 26.0.1, SVG Export Plug-In . SVG Version: 6.00 Build 0)  -->
<svg version="1.1" id="Layer_1" xmlns="http://www.w3.org/2000/svg" xmlns:xlink="http://www.w3.org/1999/xlink" x="0px" y="0px"
	 viewBox="0 0 88 28" style="enable-background:new 0 0 88 28;" xml:space="preserve">
<style type="text/css">
	.st0{fill:#F15A29;}
</style>
<g>
	<path class="st0" d="M31.4,11.8h-1.7l-0.5-3.7l-1.6,3.7h-0.7l-1.5-3.7L25,11.8h-1.7l1.1-6.4h1.7l1.3,3.4l1.4-3.4h1.7L31.4,11.8z"/>
	<path class="st0" d="M37.4,9.6c0,0.3-0.1,0.7-0.2,1c-0.1,0.3-0.3,0.5-0.5,0.7c-0.2,0.2-0.5,0.4-0.8,0.5c-0.3,0.1-0.7,0.2-1.1,0.2
		c-0.4,0-0.7-0.1-1.1-0.2c-0.3-0.1-0.6-0.3-0.8-0.5c-0.2-0.2-0.4-0.5-0.5-0.8c-0.1-0.3-0.2-0.6-0.2-1c0-0.3,0.1-0.6,0.2-0.9
		s0.3-0.5,0.5-0.7s0.5-0.4,0.8-0.5c0.3-0.1,0.7-0.2,1.1-0.2c0.4,0,0.7,0.1,1,0.2c0.3,0.1,0.6,0.3,0.8,0.5c0.2,0.2,0.4,0.5,0.5,0.7
		C37.4,8.9,37.4,9.3,37.4,9.6z M35.8,9.6c0-0.3-0.1-0.5-0.3-0.7s-0.4-0.3-0.7-0.3c-0.1,0-0.3,0-0.4,0.1c-0.1,0.1-0.2,0.1-0.3,0.2
		C34,9,33.9,9.1,33.9,9.2s-0.1,0.3-0.1,0.4c0,0.1,0,0.3,0.1,0.4s0.1,0.2,0.2,0.3c0.1,0.1,0.2,0.2,0.3,0.2c0.1,0.1,0.3,0.1,0.4,0.1
		s0.3,0,0.4-0.1c0.1-0.1,0.2-0.1,0.3-0.2c0.1-0.1,0.2-0.2,0.2-0.3S35.8,9.7,35.8,9.6z"/>
	<path class="st0" d="M43,10.2c0,1.2-0.8,1.8-2.3,1.8c-0.8,0-1.3-0.1-1.7-0.4c-0.4-0.3-0.6-0.7-0.6-1.4V7.4h1.5v2.5
		c0,0.5,0.3,0.8,0.8,0.8c0.2,0,0.4-0.1,0.6-0.2c0.1-0.1,0.2-0.3,0.2-0.6V7.4H43V10.2z"/>
	<path class="st0" d="M46.6,8.7h-0.9v3.1h-1.5V8.7h-0.5V7.4h0.5V6.1h1.5v1.3h0.9V8.7z"/>
	<path class="st0" d="M51.9,10.2c0,1.2-0.8,1.8-2.3,1.8c-0.8,0-1.3-0.1-1.7-0.4c-0.4-0.3-0.6-0.7-0.6-1.4V7.4h1.5v2.5
		c0,0.5,0.3,0.8,0.8,0.8c0.2,0,0.4-0.1,0.6-0.2c0.1-0.1,0.2-0.3,0.2-0.6V7.4h1.5V10.2z"/>
	<path class="st0" d="M56.5,10.3c0,0.5-0.2,0.9-0.6,1.2c-0.4,0.3-0.9,0.4-1.5,0.4c-0.6,0-1.2-0.2-1.7-0.5l0.6-1.1
		c0.4,0.3,0.9,0.4,1.2,0.4c0.3,0,0.5-0.1,0.5-0.3c0-0.1,0-0.1,0-0.2c0,0-0.1-0.1-0.2-0.1s-0.2-0.1-0.4-0.1S54,10,53.7,9.9
		C53.2,9.7,53,9.3,53,8.8c0-0.2,0-0.4,0.1-0.6c0.1-0.2,0.2-0.4,0.4-0.5c0.2-0.1,0.4-0.2,0.6-0.3c0.2-0.1,0.5-0.1,0.8-0.1
		c0.5,0,1,0.1,1.4,0.3l-0.5,1c-0.3-0.1-0.6-0.2-0.8-0.2c-0.3,0-0.5,0.1-0.5,0.3c0,0.1,0,0.1,0.1,0.2c0.1,0,0.2,0.1,0.4,0.1
		c0.1,0,0.3,0.1,0.5,0.1c0.2,0.1,0.3,0.1,0.5,0.2c0.1,0.1,0.3,0.2,0.4,0.4S56.5,10,56.5,10.3z"/>
	<path class="st0" d="M61.9,11.8h-1.5V9.6c0-0.2,0-0.4-0.1-0.6c0-0.1-0.1-0.2-0.1-0.3S60,8.6,59.9,8.5c-0.1,0-0.2,0-0.3,0
		c-0.2,0-0.4,0.1-0.6,0.2c-0.2,0.2-0.2,0.4-0.2,0.7v2.3h-1.5V4.7h1.5V8c0.1-0.1,0.2-0.2,0.3-0.3s0.2-0.1,0.3-0.2
		c0.1,0,0.2-0.1,0.4-0.1c0.1,0,0.3,0,0.4,0c0.5,0,0.9,0.1,1.2,0.4C61.8,8,61.9,8.4,61.9,9V11.8z"/>
	<path class="st0" d="M64.6,5.7c0,0.2-0.1,0.5-0.3,0.6c-0.2,0.2-0.4,0.2-0.6,0.2s-0.4-0.1-0.6-0.3c-0.2-0.2-0.3-0.4-0.3-0.6
		c0-0.1,0-0.2,0.1-0.3c0-0.1,0.1-0.2,0.2-0.3C63.2,5,63.3,5,63.4,4.9c0.1,0,0.2-0.1,0.3-0.1c0.1,0,0.2,0,0.3,0.1
		c0.1,0,0.2,0.1,0.3,0.2c0.1,0.1,0.1,0.2,0.2,0.3C64.6,5.5,64.6,5.6,64.6,5.7z M64.5,11.8h-1.5V7.4h1.5V11.8z"/>
</g>
<g>
	<path d="M36.9,18.1h-1.2v-1.7c0-0.2,0-0.3,0-0.4c0-0.1-0.1-0.2-0.1-0.3c0-0.1-0.1-0.1-0.2-0.1c-0.1,0-0.1,0-0.2,0
		c-0.2,0-0.3,0.1-0.4,0.2c-0.1,0.1-0.2,0.4-0.2,0.7v1.7h-1.2v-1.7c0-0.2,0-0.3,0-0.4c0-0.1-0.1-0.2-0.1-0.3s-0.1-0.1-0.2-0.1
		s-0.1,0-0.2,0c-0.1,0-0.2,0-0.2,0s-0.1,0.1-0.2,0.1c-0.1,0.1-0.1,0.1-0.1,0.3c0,0.1,0,0.3,0,0.5v1.7h-1.2v-3.5h1.2V15
		c0.2-0.2,0.4-0.3,0.5-0.4c0.2-0.1,0.4-0.1,0.6-0.1c0.3,0,0.5,0.1,0.7,0.2c0.2,0.1,0.4,0.3,0.5,0.5c0.1-0.2,0.3-0.4,0.5-0.5
		c0.2-0.1,0.4-0.2,0.7-0.2c0.4,0,0.7,0.1,0.9,0.3c0.2,0.2,0.3,0.5,0.3,1V18.1z"/>
	<path d="M41.7,18.1h-1.2v-0.4c-0.1,0.2-0.3,0.3-0.5,0.4c-0.2,0.1-0.4,0.1-0.6,0.1c-0.2,0-0.5,0-0.7-0.1c-0.2-0.1-0.4-0.2-0.6-0.4
		c-0.2-0.2-0.3-0.4-0.4-0.6c-0.1-0.2-0.1-0.5-0.1-0.7c0-0.3,0-0.5,0.1-0.7s0.2-0.4,0.4-0.6c0.2-0.2,0.3-0.3,0.6-0.4
		c0.2-0.1,0.5-0.1,0.7-0.1c0.2,0,0.4,0,0.6,0.1s0.4,0.2,0.5,0.4v-0.3h1.2V18.1z M40.5,16.4c0-0.2-0.1-0.4-0.2-0.6
		c-0.2-0.2-0.3-0.2-0.6-0.2c-0.1,0-0.2,0-0.3,0.1c-0.1,0-0.2,0.1-0.3,0.2C39,15.9,39,16,38.9,16.1c0,0.1-0.1,0.2-0.1,0.3
		c0,0.1,0,0.2,0.1,0.3c0,0.1,0.1,0.2,0.2,0.3c0.1,0.1,0.2,0.1,0.3,0.2c0.1,0,0.2,0.1,0.3,0.1c0.2,0,0.4-0.1,0.6-0.2
		C40.4,16.8,40.5,16.6,40.5,16.4z"/>
	<path d="M43.9,13.2c0,0.2-0.1,0.4-0.2,0.5s-0.3,0.2-0.5,0.2s-0.4-0.1-0.5-0.2c-0.1-0.1-0.2-0.3-0.2-0.5c0-0.1,0-0.2,0.1-0.3
		c0-0.1,0.1-0.2,0.2-0.2c0.1-0.1,0.1-0.1,0.2-0.2c0.1,0,0.2-0.1,0.3-0.1c0.1,0,0.2,0,0.3,0.1s0.2,0.1,0.2,0.2
		c0.1,0.1,0.1,0.1,0.2,0.2C43.8,13.1,43.9,13.1,43.9,13.2z M43.8,18.1h-1.2v-3.5h1.2V18.1z"/>
	<path d="M46.8,15.6H46v2.5h-1.2v-2.5h-0.4v-1h0.4v-1.1H46v1.1h0.7V15.6z"/>
	<path d="M49.9,15.8c-0.2-0.1-0.4-0.1-0.5-0.1c-0.6,0-0.9,0.3-0.9,1v1.5h-1.2v-3.5h1.2v0.6c0.1-0.2,0.3-0.4,0.5-0.5
		c0.2-0.1,0.4-0.1,0.7-0.1h0.1c0,0,0,0,0.1,0c0,0,0,0,0.1,0V15.8z"/>
	<path d="M54.4,18.1h-1.2v-0.4c-0.1,0.2-0.3,0.3-0.5,0.4c-0.2,0.1-0.4,0.1-0.6,0.1c-0.2,0-0.5,0-0.7-0.1c-0.2-0.1-0.4-0.2-0.6-0.4
		c-0.2-0.2-0.3-0.4-0.4-0.6c-0.1-0.2-0.1-0.5-0.1-0.7c0-0.3,0-0.5,0.1-0.7c0.1-0.2,0.2-0.4,0.4-0.6c0.2-0.2,0.3-0.3,0.6-0.4
		s0.5-0.1,0.7-0.1c0.2,0,0.4,0,0.6,0.1s0.4,0.2,0.5,0.4v-0.3h1.2V18.1z M53.2,16.4c0-0.2-0.1-0.4-0.2-0.6c-0.2-0.2-0.3-0.2-0.6-0.2
		c-0.1,0-0.2,0-0.3,0.1c-0.1,0-0.2,0.1-0.3,0.2c-0.1,0.1-0.1,0.2-0.2,0.3c0,0.1-0.1,0.2-0.1,0.3c0,0.1,0,0.2,0.1,0.3
		c0,0.1,0.1,0.2,0.2,0.3c0.1,0.1,0.2,0.1,0.3,0.2c0.1,0,0.2,0.1,0.3,0.1c0.2,0,0.4-0.1,0.6-0.2C53.1,16.8,53.2,16.6,53.2,16.4z"/>
</g>
</svg>
